solid AssimpScene
 facet normal 1 0 0
  outer loop
  vertex 2.6723778 0.78729802 0
  vertex 2.6723778 0.78729802 11.811024
  vertex 2.6723778 -0.78729802 0
  endloop
 endfacet

 facet normal 1 0 0
  outer loop
  vertex 2.6723778 -0.78729802 0
  vertex 2.6723778 0.78729802 11.811024
  vertex 2.6723778 -0.78729802 11.811024
  endloop
 endfacet

 facet normal 0 -1 0
  outer loop
  vertex 2.6723778 -0.78729802 0
  vertex 2.6723778 -0.78729802 11.811024
  vertex -2.6723778 -0.78729802 0
  endloop
 endfacet

 facet normal 0 -1 0
  outer loop
  vertex -2.6723778 -0.78729802 0
  vertex 2.6723778 -0.78729802 11.811024
  vertex -2.6723778 -0.78729802 11.811024
  endloop
 endfacet

 facet normal -1 0 0
  outer loop
  vertex -2.6723778 -0.78729802 0
  vertex -2.6723778 -0.78729802 11.811024
  vertex -2.6723778 0.78729802 0
  endloop
 endfacet

 facet normal -1 0 0
  outer loop
  vertex -2.6723778 0.78729802 0
  vertex -2.6723778 -0.78729802 11.811024
  vertex -2.6723778 0.78729802 11.811024
  endloop
 endfacet

 facet normal 0 1 0
  outer loop
  vertex -2.6723778 0.78729802 0
  vertex -2.6723778 0.78729802 11.811024
  vertex 2.6723778 0.78729802 0
  endloop
 endfacet

 facet normal 0 1 0
  outer loop
  vertex 2.6723778 0.78729802 0
  vertex -2.6723778 0.78729802 11.811024
  vertex 2.6723778 0.78729802 11.811024
  endloop
 endfacet

 facet normal 0 0 1
  outer loop
  vertex 2.6723778 0.78729802 11.811024
  vertex -2.6723778 0.78729802 11.811024
  vertex 2.6723778 -0.78729802 11.811024
  endloop
 endfacet

 facet normal 0 0 1
  outer loop
  vertex 2.6723778 -0.78729802 11.811024
  vertex -2.6723778 0.78729802 11.811024
  vertex -2.6723778 -0.78729802 11.811024
  endloop
 endfacet

 facet normal 0 0 -1
  outer loop
  vertex -2.6723778 0.78729802 0
  vertex 2.6723778 0.78729802 0
  vertex -2.6723778 -0.78729802 0
  endloop
 endfacet

 facet normal 0 0 -1
  outer loop
  vertex -2.6723778 -0.78729802 0
  vertex 2.6723778 0.78729802 0
  vertex 2.6723778 -0.78729802 0
  endloop
 endfacet

endsolidAssimpScene
