solid AssimpScene
 facet normal -1 0 0
  outer loop
  vertex -0.070246436 -0.17939858 0
  vertex -0.070246436 -0.17939858 0.5905512
  vertex -0.070246436 0.17939858 0
  endloop
 endfacet

 facet normal -1 0 0
  outer loop
  vertex -0.070246436 0.17939858 0
  vertex -0.070246436 -0.17939858 0.5905512
  vertex -0.070246436 0.17939858 0.5905512
  endloop
 endfacet

 facet normal 0 1 0
  outer loop
  vertex -0.070246436 0.17939858 0
  vertex -0.070246436 0.17939858 0.5905512
  vertex 0.070246436 0.17939858 0
  endloop
 endfacet

 facet normal 0 1 0
  outer loop
  vertex 0.070246436 0.17939858 0
  vertex -0.070246436 0.17939858 0.5905512
  vertex 0.070246436 0.17939858 0.5905512
  endloop
 endfacet

 facet normal 1 0 0
  outer loop
  vertex 0.070246436 0.17939858 0
  vertex 0.070246436 0.17939858 0.5905512
  vertex 0.070246436 -0.17939858 0
  endloop
 endfacet

 facet normal 1 0 0
  outer loop
  vertex 0.070246436 -0.17939858 0
  vertex 0.070246436 0.17939858 0.5905512
  vertex 0.070246436 -0.17939858 0.5905512
  endloop
 endfacet

 facet normal 0 -1 0
  outer loop
  vertex 0.070246436 -0.17939858 0
  vertex 0.070246436 -0.17939858 0.5905512
  vertex -0.070246436 -0.17939858 0
  endloop
 endfacet

 facet normal 0 -1 0
  outer loop
  vertex -0.070246436 -0.17939858 0
  vertex 0.070246436 -0.17939858 0.5905512
  vertex -0.070246436 -0.17939858 0.5905512
  endloop
 endfacet

 facet normal 0 0 1
  outer loop
  vertex -0.070246436 -0.17939858 0.5905512
  vertex 0.070246436 -0.17939858 0.5905512
  vertex -0.070246436 0.17939858 0.5905512
  endloop
 endfacet

 facet normal 0 0 1
  outer loop
  vertex -0.070246436 0.17939858 0.5905512
  vertex 0.070246436 -0.17939858 0.5905512
  vertex 0.070246436 0.17939858 0.5905512
  endloop
 endfacet

 facet normal 0 0 -1
  outer loop
  vertex 0.070246436 -0.17939858 0
  vertex -0.070246436 -0.17939858 0
  vertex 0.070246436 0.17939858 0
  endloop
 endfacet

 facet normal 0 0 -1
  outer loop
  vertex 0.070246436 0.17939858 0
  vertex -0.070246436 -0.17939858 0
  vertex -0.070246436 0.17939858 0
  endloop
 endfacet

endsolidAssimpScene
